<svg width="80" height="30" xmlns="http://www.w3.org/2000/svg">
  <path d="M15.9321 0C15.0655 0 14.3321 0.6 14.3321 1.5C14.3321 2.4 15.0655 3 15.9321 3C16.9321 3 17.5321 2.4 17.5321 1.5C17.5321 0.6 16.7988 0 15.9321 0ZM77.332 2.1C75.732 2.1 74.532 3.3 74.532 4.8C74.532 6.4 75.732 7.5 77.332 7.5C78.932 7.5 80.132 6.3 80.132 4.8C80.132 3.3 78.932 2.1 77.332 2.1ZM77.332 2.9C78.532 2.9 79.332 3.7 79.332 4.8C79.332 5.9 78.532 6.7 77.332 6.7C76.132 6.7 75.332 5.9 75.332 4.8C75.332 3.7 76.132 2.9 77.332 2.9ZM76.132 3.8V5.8H76.932V5H77.332L77.832 5.8H78.632L78.032 4.9C78.332 4.8 78.532 4.5 78.532 4.2C78.532 3.8 78.132 3.5 77.632 3.5H76.132V3.8ZM76.932 4.3H77.532C77.732 4.3 77.832 4.4 77.832 4.5C77.832 4.6 77.732 4.7 77.532 4.7H76.932V4.3ZM9.5321 5.4V22.8H44.4321V5.4H9.5321ZM58.0321 5.4V22.8H68.9321V20H61.5321V5.4H58.0321ZM13.5321 7.6H15.6321L17.9321 14.6L20.0321 7.6H25.9321V20H22.6321V10.5L19.8321 20H16.1321L13.3321 10.5V20.1H9.9321V13.2H13.6321L13.5321 7.6ZM26.5321 7.6H34.2321C36.8321 7.6 38.3321 9 38.3321 11.3V16.3C38.3321 18.6 36.8321 20 34.2321 20H26.5321V7.6ZM30.1321 10.5V17.1H34.0321C34.9321 17.1 35.4321 16.7 35.4321 15.8V11.8C35.4321 10.9 34.9321 10.5 34.0321 10.5H30.1321ZM39.5321 7.6H44.1321V20H41.2321L39.5321 18.3V7.6ZM46.1321 7.6H49.2321L55.1321 15.6V7.6H58.6321V20H55.5321L49.6321 12V20H46.1321V7.6ZM69.332 7.6H75.232C77.832 7.6 79.332 9 79.332 11.3V16.3C79.332 18.6 77.832 20 75.232 20H69.332V7.6ZM72.932 10.5V17.1H74.932C75.832 17.1 76.332 16.7 76.332 15.8V11.8C76.332 10.9 75.832 10.5 74.932 10.5H72.932Z" fill="white"/>
</svg>
